G04 #@! TF.FileFunction,Copper,L1,Top,Signal*
%FSLAX46Y46*%
G04 Gerber Fmt 4.6, Leading zero omitted, Abs format (unit mm)*
G04 Created by KiCad (PCBNEW 4.0.7) date 11/14/17 16:47:31*
%MOMM*%
%LPD*%
G01*
G04 APERTURE LIST*
%ADD10C,0.100000*%
%ADD11R,1.600000X1.600000*%
%ADD12C,1.600000*%
%ADD13R,1.800000X1.800000*%
%ADD14O,1.800000X1.800000*%
%ADD15C,1.400000*%
%ADD16O,1.400000X1.400000*%
%ADD17R,0.800000X0.900000*%
%ADD18O,1.600000X1.600000*%
%ADD19R,1.200000X0.900000*%
%ADD20C,1.000000*%
%ADD21R,1.000000X1.000000*%
%ADD22R,2.600000X2.000000*%
%ADD23O,2.600000X2.000000*%
%ADD24C,0.250000*%
%ADD25C,0.254000*%
G04 APERTURE END LIST*
D10*
D11*
X157480000Y-91440000D03*
D12*
X159980000Y-91440000D03*
D13*
X165100000Y-91440000D03*
D14*
X165100000Y-99060000D03*
D15*
X168910000Y-91440000D03*
D16*
X168910000Y-99060000D03*
D17*
X159070000Y-100060000D03*
X160970000Y-100060000D03*
X160020000Y-98060000D03*
D11*
X146050000Y-90170000D03*
D18*
X153670000Y-97790000D03*
X146050000Y-92710000D03*
X153670000Y-95250000D03*
X146050000Y-95250000D03*
X153670000Y-92710000D03*
X146050000Y-97790000D03*
X153670000Y-90170000D03*
D19*
X157310000Y-97790000D03*
X155110000Y-97790000D03*
D20*
X140970000Y-97790000D03*
X142240000Y-99060000D03*
D21*
X139700000Y-99060000D03*
D20*
X139700000Y-90170000D03*
X140970000Y-91440000D03*
D21*
X138430000Y-91440000D03*
D19*
X144610000Y-90170000D03*
X142410000Y-90170000D03*
D22*
X133350000Y-88900000D03*
D23*
X133350000Y-91440000D03*
X133350000Y-93980000D03*
X133350000Y-96520000D03*
X133350000Y-99060000D03*
X133350000Y-101600000D03*
D24*
X140970000Y-91440000D02*
X139700000Y-92710000D01*
X139700000Y-92710000D02*
X139700000Y-99060000D01*
X142410000Y-90170000D02*
X142240000Y-90170000D01*
X142240000Y-90170000D02*
X140970000Y-91440000D01*
X165100000Y-90170000D02*
X168910000Y-90170000D01*
X168910000Y-90170000D02*
X168910000Y-91440000D01*
X157480000Y-90170000D02*
X165100000Y-90170000D01*
X165100000Y-90170000D02*
X165100000Y-91440000D01*
X153670000Y-90170000D02*
X157480000Y-90170000D01*
X157480000Y-90170000D02*
X157480000Y-91440000D01*
X165100000Y-99060000D02*
X168910000Y-99060000D01*
X160020000Y-98060000D02*
X164100000Y-98060000D01*
X164100000Y-98060000D02*
X165100000Y-99060000D01*
X157310000Y-97790000D02*
X157310000Y-98300000D01*
X157310000Y-98300000D02*
X159070000Y-100060000D01*
X139700000Y-90170000D02*
X138430000Y-88900000D01*
X138430000Y-88900000D02*
X133350000Y-88900000D01*
X146050000Y-95250000D02*
X143510000Y-95250000D01*
X143510000Y-95250000D02*
X140970000Y-97790000D01*
X153670000Y-97790000D02*
X155110000Y-97790000D01*
D25*
G36*
X169470000Y-89666421D02*
X169447401Y-89632599D01*
X169200839Y-89467852D01*
X168910000Y-89410000D01*
X154882995Y-89410000D01*
X154712811Y-89155302D01*
X154247264Y-88844233D01*
X153698113Y-88735000D01*
X153641887Y-88735000D01*
X153092736Y-88844233D01*
X152627189Y-89155302D01*
X152316120Y-89620849D01*
X152206887Y-90170000D01*
X152316120Y-90719151D01*
X152627189Y-91184698D01*
X153009275Y-91440000D01*
X152627189Y-91695302D01*
X152316120Y-92160849D01*
X152206887Y-92710000D01*
X152316120Y-93259151D01*
X152627189Y-93724698D01*
X153009275Y-93980000D01*
X152627189Y-94235302D01*
X152316120Y-94700849D01*
X152206887Y-95250000D01*
X152316120Y-95799151D01*
X152627189Y-96264698D01*
X153009275Y-96520000D01*
X152627189Y-96775302D01*
X152316120Y-97240849D01*
X152206887Y-97790000D01*
X152316120Y-98339151D01*
X152627189Y-98804698D01*
X153092736Y-99115767D01*
X153641887Y-99225000D01*
X153698113Y-99225000D01*
X154247264Y-99115767D01*
X154588979Y-98887440D01*
X155710000Y-98887440D01*
X155945317Y-98843162D01*
X156161441Y-98704090D01*
X156209134Y-98634289D01*
X156245910Y-98691441D01*
X156458110Y-98836431D01*
X156710000Y-98887440D01*
X156822638Y-98887440D01*
X158022560Y-100087362D01*
X158022560Y-100510000D01*
X158066838Y-100745317D01*
X158205910Y-100961441D01*
X158418110Y-101106431D01*
X158670000Y-101157440D01*
X159470000Y-101157440D01*
X159705317Y-101113162D01*
X159921441Y-100974090D01*
X160016990Y-100834250D01*
X160031673Y-100869698D01*
X160210301Y-101048327D01*
X160443690Y-101145000D01*
X160684250Y-101145000D01*
X160843000Y-100986250D01*
X160843000Y-100187000D01*
X161097000Y-100187000D01*
X161097000Y-100986250D01*
X161255750Y-101145000D01*
X161496310Y-101145000D01*
X161729699Y-101048327D01*
X161908327Y-100869698D01*
X162005000Y-100636309D01*
X162005000Y-100345750D01*
X161846250Y-100187000D01*
X161097000Y-100187000D01*
X160843000Y-100187000D01*
X160823000Y-100187000D01*
X160823000Y-99933000D01*
X160843000Y-99933000D01*
X160843000Y-99133750D01*
X161097000Y-99133750D01*
X161097000Y-99933000D01*
X161846250Y-99933000D01*
X162005000Y-99774250D01*
X162005000Y-99483691D01*
X161908327Y-99250302D01*
X161729699Y-99071673D01*
X161496310Y-98975000D01*
X161255750Y-98975000D01*
X161097000Y-99133750D01*
X160843000Y-99133750D01*
X160756988Y-99047738D01*
X160871441Y-98974090D01*
X160976726Y-98820000D01*
X163606757Y-98820000D01*
X163565000Y-99029928D01*
X163565000Y-99090072D01*
X163681845Y-99677491D01*
X164014591Y-100175481D01*
X164512581Y-100508227D01*
X165100000Y-100625072D01*
X165687419Y-100508227D01*
X166185409Y-100175481D01*
X166422934Y-99820000D01*
X167825600Y-99820000D01*
X167966012Y-100030142D01*
X168399118Y-100319533D01*
X168910000Y-100421154D01*
X169420882Y-100319533D01*
X169470000Y-100286714D01*
X169470000Y-103430000D01*
X127710000Y-103430000D01*
X127710000Y-93980000D01*
X131377091Y-93980000D01*
X131501548Y-94605687D01*
X131855971Y-95136120D01*
X132026405Y-95250000D01*
X131855971Y-95363880D01*
X131501548Y-95894313D01*
X131377091Y-96520000D01*
X131501548Y-97145687D01*
X131855971Y-97676120D01*
X132026405Y-97790000D01*
X131855971Y-97903880D01*
X131501548Y-98434313D01*
X131377091Y-99060000D01*
X131501548Y-99685687D01*
X131855971Y-100216120D01*
X132026405Y-100330000D01*
X131855971Y-100443880D01*
X131501548Y-100974313D01*
X131377091Y-101600000D01*
X131501548Y-102225687D01*
X131855971Y-102756120D01*
X132386404Y-103110543D01*
X133012091Y-103235000D01*
X133687909Y-103235000D01*
X134313596Y-103110543D01*
X134844029Y-102756120D01*
X135198452Y-102225687D01*
X135322909Y-101600000D01*
X135198452Y-100974313D01*
X134844029Y-100443880D01*
X134673595Y-100330000D01*
X134844029Y-100216120D01*
X135198452Y-99685687D01*
X135322909Y-99060000D01*
X135198452Y-98434313D01*
X134844029Y-97903880D01*
X134673595Y-97790000D01*
X134844029Y-97676120D01*
X135198452Y-97145687D01*
X135322909Y-96520000D01*
X135198452Y-95894313D01*
X134844029Y-95363880D01*
X134673595Y-95250000D01*
X134844029Y-95136120D01*
X135198452Y-94605687D01*
X135322909Y-93980000D01*
X135198452Y-93354313D01*
X134844029Y-92823880D01*
X134653812Y-92696781D01*
X134895922Y-92506317D01*
X135209144Y-91948355D01*
X135240124Y-91820434D01*
X135195536Y-91725750D01*
X137295000Y-91725750D01*
X137295000Y-92066309D01*
X137391673Y-92299698D01*
X137570301Y-92478327D01*
X137803690Y-92575000D01*
X138144250Y-92575000D01*
X138303000Y-92416250D01*
X138303000Y-91567000D01*
X137453750Y-91567000D01*
X137295000Y-91725750D01*
X135195536Y-91725750D01*
X135120777Y-91567000D01*
X133477000Y-91567000D01*
X133477000Y-91587000D01*
X133223000Y-91587000D01*
X133223000Y-91567000D01*
X131579223Y-91567000D01*
X131459876Y-91820434D01*
X131490856Y-91948355D01*
X131804078Y-92506317D01*
X132046188Y-92696781D01*
X131855971Y-92823880D01*
X131501548Y-93354313D01*
X131377091Y-93980000D01*
X127710000Y-93980000D01*
X127710000Y-87900000D01*
X131402560Y-87900000D01*
X131402560Y-89900000D01*
X131446838Y-90135317D01*
X131585910Y-90351441D01*
X131752620Y-90465349D01*
X131490856Y-90931645D01*
X131459876Y-91059566D01*
X131579223Y-91313000D01*
X133223000Y-91313000D01*
X133223000Y-91293000D01*
X133477000Y-91293000D01*
X133477000Y-91313000D01*
X135120777Y-91313000D01*
X135240124Y-91059566D01*
X135209144Y-90931645D01*
X135142929Y-90813691D01*
X137295000Y-90813691D01*
X137295000Y-91154250D01*
X137453750Y-91313000D01*
X138303000Y-91313000D01*
X138303000Y-90463750D01*
X138144250Y-90305000D01*
X137803690Y-90305000D01*
X137570301Y-90401673D01*
X137391673Y-90580302D01*
X137295000Y-90813691D01*
X135142929Y-90813691D01*
X134946505Y-90463789D01*
X135101441Y-90364090D01*
X135246431Y-90151890D01*
X135297440Y-89900000D01*
X135297440Y-89660000D01*
X138115198Y-89660000D01*
X138565052Y-90109854D01*
X138564803Y-90394775D01*
X138582689Y-90438061D01*
X138557000Y-90463750D01*
X138557000Y-91313000D01*
X139406250Y-91313000D01*
X139431698Y-91287552D01*
X139473244Y-91304803D01*
X139835117Y-91305119D01*
X139834947Y-91500251D01*
X139565000Y-91770198D01*
X139565000Y-91725750D01*
X139406250Y-91567000D01*
X138557000Y-91567000D01*
X138557000Y-92416250D01*
X138715750Y-92575000D01*
X138966853Y-92575000D01*
X138940000Y-92710000D01*
X138940000Y-97972721D01*
X138748559Y-98095910D01*
X138603569Y-98308110D01*
X138552560Y-98560000D01*
X138552560Y-99560000D01*
X138596838Y-99795317D01*
X138735910Y-100011441D01*
X138948110Y-100156431D01*
X139200000Y-100207440D01*
X140200000Y-100207440D01*
X140435317Y-100163162D01*
X140651441Y-100024090D01*
X140770320Y-99850104D01*
X141629501Y-99850104D01*
X141666648Y-100065217D01*
X142094972Y-100208112D01*
X142545375Y-100176217D01*
X142813352Y-100065217D01*
X142850499Y-99850104D01*
X142240000Y-99239605D01*
X141629501Y-99850104D01*
X140770320Y-99850104D01*
X140796431Y-99811890D01*
X140847440Y-99560000D01*
X140847440Y-98924894D01*
X141092606Y-98925108D01*
X141123783Y-99365375D01*
X141234783Y-99633352D01*
X141449896Y-99670499D01*
X142060395Y-99060000D01*
X142419605Y-99060000D01*
X143030104Y-99670499D01*
X143245217Y-99633352D01*
X143388112Y-99205028D01*
X143356217Y-98754625D01*
X143245217Y-98486648D01*
X143030104Y-98449501D01*
X142419605Y-99060000D01*
X142060395Y-99060000D01*
X142046253Y-99045858D01*
X142225858Y-98866253D01*
X142240000Y-98880395D01*
X142850499Y-98269896D01*
X142827902Y-98139039D01*
X144658096Y-98139039D01*
X144818959Y-98527423D01*
X145194866Y-98942389D01*
X145700959Y-99181914D01*
X145923000Y-99060629D01*
X145923000Y-97917000D01*
X146177000Y-97917000D01*
X146177000Y-99060629D01*
X146399041Y-99181914D01*
X146905134Y-98942389D01*
X147281041Y-98527423D01*
X147441904Y-98139039D01*
X147319915Y-97917000D01*
X146177000Y-97917000D01*
X145923000Y-97917000D01*
X144780085Y-97917000D01*
X144658096Y-98139039D01*
X142827902Y-98139039D01*
X142813352Y-98054783D01*
X142385028Y-97911888D01*
X142104877Y-97931727D01*
X142105053Y-97729749D01*
X143824802Y-96010000D01*
X144837005Y-96010000D01*
X145007189Y-96264698D01*
X145411703Y-96534986D01*
X145194866Y-96637611D01*
X144818959Y-97052577D01*
X144658096Y-97440961D01*
X144780085Y-97663000D01*
X145923000Y-97663000D01*
X145923000Y-97643000D01*
X146177000Y-97643000D01*
X146177000Y-97663000D01*
X147319915Y-97663000D01*
X147441904Y-97440961D01*
X147281041Y-97052577D01*
X146905134Y-96637611D01*
X146688297Y-96534986D01*
X147092811Y-96264698D01*
X147403880Y-95799151D01*
X147513113Y-95250000D01*
X147403880Y-94700849D01*
X147092811Y-94235302D01*
X146710725Y-93980000D01*
X147092811Y-93724698D01*
X147403880Y-93259151D01*
X147513113Y-92710000D01*
X147403880Y-92160849D01*
X147092811Y-91695302D01*
X146948535Y-91598899D01*
X147085317Y-91573162D01*
X147301441Y-91434090D01*
X147446431Y-91221890D01*
X147497440Y-90970000D01*
X147497440Y-89370000D01*
X147453162Y-89134683D01*
X147314090Y-88918559D01*
X147101890Y-88773569D01*
X146850000Y-88722560D01*
X145250000Y-88722560D01*
X145014683Y-88766838D01*
X144798559Y-88905910D01*
X144684692Y-89072560D01*
X144010000Y-89072560D01*
X143774683Y-89116838D01*
X143558559Y-89255910D01*
X143510866Y-89325711D01*
X143474090Y-89268559D01*
X143261890Y-89123569D01*
X143010000Y-89072560D01*
X141810000Y-89072560D01*
X141574683Y-89116838D01*
X141358559Y-89255910D01*
X141213569Y-89468110D01*
X141162560Y-89720000D01*
X141162560Y-90172638D01*
X141030146Y-90305052D01*
X140834883Y-90304881D01*
X140835197Y-89945225D01*
X140662767Y-89527914D01*
X140343765Y-89208355D01*
X139926756Y-89035197D01*
X139639749Y-89034947D01*
X138967401Y-88362599D01*
X138720839Y-88197852D01*
X138430000Y-88140000D01*
X135297440Y-88140000D01*
X135297440Y-87900000D01*
X135253162Y-87664683D01*
X135114090Y-87448559D01*
X134901890Y-87303569D01*
X134650000Y-87252560D01*
X132050000Y-87252560D01*
X131814683Y-87296838D01*
X131598559Y-87435910D01*
X131453569Y-87648110D01*
X131402560Y-87900000D01*
X127710000Y-87900000D01*
X127710000Y-87070000D01*
X169470000Y-87070000D01*
X169470000Y-89666421D01*
X169470000Y-89666421D01*
G37*
X169470000Y-89666421D02*
X169447401Y-89632599D01*
X169200839Y-89467852D01*
X168910000Y-89410000D01*
X154882995Y-89410000D01*
X154712811Y-89155302D01*
X154247264Y-88844233D01*
X153698113Y-88735000D01*
X153641887Y-88735000D01*
X153092736Y-88844233D01*
X152627189Y-89155302D01*
X152316120Y-89620849D01*
X152206887Y-90170000D01*
X152316120Y-90719151D01*
X152627189Y-91184698D01*
X153009275Y-91440000D01*
X152627189Y-91695302D01*
X152316120Y-92160849D01*
X152206887Y-92710000D01*
X152316120Y-93259151D01*
X152627189Y-93724698D01*
X153009275Y-93980000D01*
X152627189Y-94235302D01*
X152316120Y-94700849D01*
X152206887Y-95250000D01*
X152316120Y-95799151D01*
X152627189Y-96264698D01*
X153009275Y-96520000D01*
X152627189Y-96775302D01*
X152316120Y-97240849D01*
X152206887Y-97790000D01*
X152316120Y-98339151D01*
X152627189Y-98804698D01*
X153092736Y-99115767D01*
X153641887Y-99225000D01*
X153698113Y-99225000D01*
X154247264Y-99115767D01*
X154588979Y-98887440D01*
X155710000Y-98887440D01*
X155945317Y-98843162D01*
X156161441Y-98704090D01*
X156209134Y-98634289D01*
X156245910Y-98691441D01*
X156458110Y-98836431D01*
X156710000Y-98887440D01*
X156822638Y-98887440D01*
X158022560Y-100087362D01*
X158022560Y-100510000D01*
X158066838Y-100745317D01*
X158205910Y-100961441D01*
X158418110Y-101106431D01*
X158670000Y-101157440D01*
X159470000Y-101157440D01*
X159705317Y-101113162D01*
X159921441Y-100974090D01*
X160016990Y-100834250D01*
X160031673Y-100869698D01*
X160210301Y-101048327D01*
X160443690Y-101145000D01*
X160684250Y-101145000D01*
X160843000Y-100986250D01*
X160843000Y-100187000D01*
X161097000Y-100187000D01*
X161097000Y-100986250D01*
X161255750Y-101145000D01*
X161496310Y-101145000D01*
X161729699Y-101048327D01*
X161908327Y-100869698D01*
X162005000Y-100636309D01*
X162005000Y-100345750D01*
X161846250Y-100187000D01*
X161097000Y-100187000D01*
X160843000Y-100187000D01*
X160823000Y-100187000D01*
X160823000Y-99933000D01*
X160843000Y-99933000D01*
X160843000Y-99133750D01*
X161097000Y-99133750D01*
X161097000Y-99933000D01*
X161846250Y-99933000D01*
X162005000Y-99774250D01*
X162005000Y-99483691D01*
X161908327Y-99250302D01*
X161729699Y-99071673D01*
X161496310Y-98975000D01*
X161255750Y-98975000D01*
X161097000Y-99133750D01*
X160843000Y-99133750D01*
X160756988Y-99047738D01*
X160871441Y-98974090D01*
X160976726Y-98820000D01*
X163606757Y-98820000D01*
X163565000Y-99029928D01*
X163565000Y-99090072D01*
X163681845Y-99677491D01*
X164014591Y-100175481D01*
X164512581Y-100508227D01*
X165100000Y-100625072D01*
X165687419Y-100508227D01*
X166185409Y-100175481D01*
X166422934Y-99820000D01*
X167825600Y-99820000D01*
X167966012Y-100030142D01*
X168399118Y-100319533D01*
X168910000Y-100421154D01*
X169420882Y-100319533D01*
X169470000Y-100286714D01*
X169470000Y-103430000D01*
X127710000Y-103430000D01*
X127710000Y-93980000D01*
X131377091Y-93980000D01*
X131501548Y-94605687D01*
X131855971Y-95136120D01*
X132026405Y-95250000D01*
X131855971Y-95363880D01*
X131501548Y-95894313D01*
X131377091Y-96520000D01*
X131501548Y-97145687D01*
X131855971Y-97676120D01*
X132026405Y-97790000D01*
X131855971Y-97903880D01*
X131501548Y-98434313D01*
X131377091Y-99060000D01*
X131501548Y-99685687D01*
X131855971Y-100216120D01*
X132026405Y-100330000D01*
X131855971Y-100443880D01*
X131501548Y-100974313D01*
X131377091Y-101600000D01*
X131501548Y-102225687D01*
X131855971Y-102756120D01*
X132386404Y-103110543D01*
X133012091Y-103235000D01*
X133687909Y-103235000D01*
X134313596Y-103110543D01*
X134844029Y-102756120D01*
X135198452Y-102225687D01*
X135322909Y-101600000D01*
X135198452Y-100974313D01*
X134844029Y-100443880D01*
X134673595Y-100330000D01*
X134844029Y-100216120D01*
X135198452Y-99685687D01*
X135322909Y-99060000D01*
X135198452Y-98434313D01*
X134844029Y-97903880D01*
X134673595Y-97790000D01*
X134844029Y-97676120D01*
X135198452Y-97145687D01*
X135322909Y-96520000D01*
X135198452Y-95894313D01*
X134844029Y-95363880D01*
X134673595Y-95250000D01*
X134844029Y-95136120D01*
X135198452Y-94605687D01*
X135322909Y-93980000D01*
X135198452Y-93354313D01*
X134844029Y-92823880D01*
X134653812Y-92696781D01*
X134895922Y-92506317D01*
X135209144Y-91948355D01*
X135240124Y-91820434D01*
X135195536Y-91725750D01*
X137295000Y-91725750D01*
X137295000Y-92066309D01*
X137391673Y-92299698D01*
X137570301Y-92478327D01*
X137803690Y-92575000D01*
X138144250Y-92575000D01*
X138303000Y-92416250D01*
X138303000Y-91567000D01*
X137453750Y-91567000D01*
X137295000Y-91725750D01*
X135195536Y-91725750D01*
X135120777Y-91567000D01*
X133477000Y-91567000D01*
X133477000Y-91587000D01*
X133223000Y-91587000D01*
X133223000Y-91567000D01*
X131579223Y-91567000D01*
X131459876Y-91820434D01*
X131490856Y-91948355D01*
X131804078Y-92506317D01*
X132046188Y-92696781D01*
X131855971Y-92823880D01*
X131501548Y-93354313D01*
X131377091Y-93980000D01*
X127710000Y-93980000D01*
X127710000Y-87900000D01*
X131402560Y-87900000D01*
X131402560Y-89900000D01*
X131446838Y-90135317D01*
X131585910Y-90351441D01*
X131752620Y-90465349D01*
X131490856Y-90931645D01*
X131459876Y-91059566D01*
X131579223Y-91313000D01*
X133223000Y-91313000D01*
X133223000Y-91293000D01*
X133477000Y-91293000D01*
X133477000Y-91313000D01*
X135120777Y-91313000D01*
X135240124Y-91059566D01*
X135209144Y-90931645D01*
X135142929Y-90813691D01*
X137295000Y-90813691D01*
X137295000Y-91154250D01*
X137453750Y-91313000D01*
X138303000Y-91313000D01*
X138303000Y-90463750D01*
X138144250Y-90305000D01*
X137803690Y-90305000D01*
X137570301Y-90401673D01*
X137391673Y-90580302D01*
X137295000Y-90813691D01*
X135142929Y-90813691D01*
X134946505Y-90463789D01*
X135101441Y-90364090D01*
X135246431Y-90151890D01*
X135297440Y-89900000D01*
X135297440Y-89660000D01*
X138115198Y-89660000D01*
X138565052Y-90109854D01*
X138564803Y-90394775D01*
X138582689Y-90438061D01*
X138557000Y-90463750D01*
X138557000Y-91313000D01*
X139406250Y-91313000D01*
X139431698Y-91287552D01*
X139473244Y-91304803D01*
X139835117Y-91305119D01*
X139834947Y-91500251D01*
X139565000Y-91770198D01*
X139565000Y-91725750D01*
X139406250Y-91567000D01*
X138557000Y-91567000D01*
X138557000Y-92416250D01*
X138715750Y-92575000D01*
X138966853Y-92575000D01*
X138940000Y-92710000D01*
X138940000Y-97972721D01*
X138748559Y-98095910D01*
X138603569Y-98308110D01*
X138552560Y-98560000D01*
X138552560Y-99560000D01*
X138596838Y-99795317D01*
X138735910Y-100011441D01*
X138948110Y-100156431D01*
X139200000Y-100207440D01*
X140200000Y-100207440D01*
X140435317Y-100163162D01*
X140651441Y-100024090D01*
X140770320Y-99850104D01*
X141629501Y-99850104D01*
X141666648Y-100065217D01*
X142094972Y-100208112D01*
X142545375Y-100176217D01*
X142813352Y-100065217D01*
X142850499Y-99850104D01*
X142240000Y-99239605D01*
X141629501Y-99850104D01*
X140770320Y-99850104D01*
X140796431Y-99811890D01*
X140847440Y-99560000D01*
X140847440Y-98924894D01*
X141092606Y-98925108D01*
X141123783Y-99365375D01*
X141234783Y-99633352D01*
X141449896Y-99670499D01*
X142060395Y-99060000D01*
X142419605Y-99060000D01*
X143030104Y-99670499D01*
X143245217Y-99633352D01*
X143388112Y-99205028D01*
X143356217Y-98754625D01*
X143245217Y-98486648D01*
X143030104Y-98449501D01*
X142419605Y-99060000D01*
X142060395Y-99060000D01*
X142046253Y-99045858D01*
X142225858Y-98866253D01*
X142240000Y-98880395D01*
X142850499Y-98269896D01*
X142827902Y-98139039D01*
X144658096Y-98139039D01*
X144818959Y-98527423D01*
X145194866Y-98942389D01*
X145700959Y-99181914D01*
X145923000Y-99060629D01*
X145923000Y-97917000D01*
X146177000Y-97917000D01*
X146177000Y-99060629D01*
X146399041Y-99181914D01*
X146905134Y-98942389D01*
X147281041Y-98527423D01*
X147441904Y-98139039D01*
X147319915Y-97917000D01*
X146177000Y-97917000D01*
X145923000Y-97917000D01*
X144780085Y-97917000D01*
X144658096Y-98139039D01*
X142827902Y-98139039D01*
X142813352Y-98054783D01*
X142385028Y-97911888D01*
X142104877Y-97931727D01*
X142105053Y-97729749D01*
X143824802Y-96010000D01*
X144837005Y-96010000D01*
X145007189Y-96264698D01*
X145411703Y-96534986D01*
X145194866Y-96637611D01*
X144818959Y-97052577D01*
X144658096Y-97440961D01*
X144780085Y-97663000D01*
X145923000Y-97663000D01*
X145923000Y-97643000D01*
X146177000Y-97643000D01*
X146177000Y-97663000D01*
X147319915Y-97663000D01*
X147441904Y-97440961D01*
X147281041Y-97052577D01*
X146905134Y-96637611D01*
X146688297Y-96534986D01*
X147092811Y-96264698D01*
X147403880Y-95799151D01*
X147513113Y-95250000D01*
X147403880Y-94700849D01*
X147092811Y-94235302D01*
X146710725Y-93980000D01*
X147092811Y-93724698D01*
X147403880Y-93259151D01*
X147513113Y-92710000D01*
X147403880Y-92160849D01*
X147092811Y-91695302D01*
X146948535Y-91598899D01*
X147085317Y-91573162D01*
X147301441Y-91434090D01*
X147446431Y-91221890D01*
X147497440Y-90970000D01*
X147497440Y-89370000D01*
X147453162Y-89134683D01*
X147314090Y-88918559D01*
X147101890Y-88773569D01*
X146850000Y-88722560D01*
X145250000Y-88722560D01*
X145014683Y-88766838D01*
X144798559Y-88905910D01*
X144684692Y-89072560D01*
X144010000Y-89072560D01*
X143774683Y-89116838D01*
X143558559Y-89255910D01*
X143510866Y-89325711D01*
X143474090Y-89268559D01*
X143261890Y-89123569D01*
X143010000Y-89072560D01*
X141810000Y-89072560D01*
X141574683Y-89116838D01*
X141358559Y-89255910D01*
X141213569Y-89468110D01*
X141162560Y-89720000D01*
X141162560Y-90172638D01*
X141030146Y-90305052D01*
X140834883Y-90304881D01*
X140835197Y-89945225D01*
X140662767Y-89527914D01*
X140343765Y-89208355D01*
X139926756Y-89035197D01*
X139639749Y-89034947D01*
X138967401Y-88362599D01*
X138720839Y-88197852D01*
X138430000Y-88140000D01*
X135297440Y-88140000D01*
X135297440Y-87900000D01*
X135253162Y-87664683D01*
X135114090Y-87448559D01*
X134901890Y-87303569D01*
X134650000Y-87252560D01*
X132050000Y-87252560D01*
X131814683Y-87296838D01*
X131598559Y-87435910D01*
X131453569Y-87648110D01*
X131402560Y-87900000D01*
X127710000Y-87900000D01*
X127710000Y-87070000D01*
X169470000Y-87070000D01*
X169470000Y-89666421D01*
G36*
X156032560Y-92240000D02*
X156076838Y-92475317D01*
X156215910Y-92691441D01*
X156428110Y-92836431D01*
X156680000Y-92887440D01*
X158280000Y-92887440D01*
X158515317Y-92843162D01*
X158731441Y-92704090D01*
X158876431Y-92491890D01*
X158885370Y-92447745D01*
X159151861Y-92447745D01*
X159225995Y-92693864D01*
X159763223Y-92886965D01*
X160333454Y-92859778D01*
X160734005Y-92693864D01*
X160808139Y-92447745D01*
X159980000Y-91619605D01*
X159151861Y-92447745D01*
X158885370Y-92447745D01*
X158924646Y-92253799D01*
X158972255Y-92268139D01*
X159800395Y-91440000D01*
X159786252Y-91425858D01*
X159965858Y-91246253D01*
X159980000Y-91260395D01*
X159994143Y-91246253D01*
X160173748Y-91425858D01*
X160159605Y-91440000D01*
X160987745Y-92268139D01*
X161233864Y-92194005D01*
X161426965Y-91656777D01*
X161399778Y-91086546D01*
X161334934Y-90930000D01*
X163552560Y-90930000D01*
X163552560Y-92340000D01*
X163596838Y-92575317D01*
X163735910Y-92791441D01*
X163948110Y-92936431D01*
X164200000Y-92987440D01*
X166000000Y-92987440D01*
X166235317Y-92943162D01*
X166451441Y-92804090D01*
X166596431Y-92591890D01*
X166647440Y-92340000D01*
X166647440Y-90930000D01*
X167676254Y-90930000D01*
X167575232Y-91173287D01*
X167574769Y-91704383D01*
X167777582Y-92195229D01*
X168152796Y-92571098D01*
X168643287Y-92774768D01*
X169174383Y-92775231D01*
X169470000Y-92653085D01*
X169470000Y-97833286D01*
X169420882Y-97800467D01*
X168910000Y-97698846D01*
X168399118Y-97800467D01*
X167966012Y-98089858D01*
X167825600Y-98300000D01*
X166422934Y-98300000D01*
X166185409Y-97944519D01*
X165687419Y-97611773D01*
X165100000Y-97494928D01*
X164691071Y-97576269D01*
X164637401Y-97522599D01*
X164390839Y-97357852D01*
X164100000Y-97300000D01*
X160975105Y-97300000D01*
X160884090Y-97158559D01*
X160671890Y-97013569D01*
X160420000Y-96962560D01*
X159620000Y-96962560D01*
X159384683Y-97006838D01*
X159168559Y-97145910D01*
X159023569Y-97358110D01*
X158972560Y-97610000D01*
X158972560Y-98510000D01*
X159016838Y-98745317D01*
X159155910Y-98961441D01*
X159157548Y-98962560D01*
X159047362Y-98962560D01*
X158518263Y-98433461D01*
X158557440Y-98240000D01*
X158557440Y-97340000D01*
X158513162Y-97104683D01*
X158374090Y-96888559D01*
X158161890Y-96743569D01*
X157910000Y-96692560D01*
X156710000Y-96692560D01*
X156474683Y-96736838D01*
X156258559Y-96875910D01*
X156210866Y-96945711D01*
X156174090Y-96888559D01*
X155961890Y-96743569D01*
X155710000Y-96692560D01*
X154588979Y-96692560D01*
X154330725Y-96520000D01*
X154712811Y-96264698D01*
X155023880Y-95799151D01*
X155133113Y-95250000D01*
X155023880Y-94700849D01*
X154712811Y-94235302D01*
X154330725Y-93980000D01*
X154712811Y-93724698D01*
X155023880Y-93259151D01*
X155133113Y-92710000D01*
X155023880Y-92160849D01*
X154712811Y-91695302D01*
X154330725Y-91440000D01*
X154712811Y-91184698D01*
X154882995Y-90930000D01*
X156032560Y-90930000D01*
X156032560Y-92240000D01*
X156032560Y-92240000D01*
G37*
X156032560Y-92240000D02*
X156076838Y-92475317D01*
X156215910Y-92691441D01*
X156428110Y-92836431D01*
X156680000Y-92887440D01*
X158280000Y-92887440D01*
X158515317Y-92843162D01*
X158731441Y-92704090D01*
X158876431Y-92491890D01*
X158885370Y-92447745D01*
X159151861Y-92447745D01*
X159225995Y-92693864D01*
X159763223Y-92886965D01*
X160333454Y-92859778D01*
X160734005Y-92693864D01*
X160808139Y-92447745D01*
X159980000Y-91619605D01*
X159151861Y-92447745D01*
X158885370Y-92447745D01*
X158924646Y-92253799D01*
X158972255Y-92268139D01*
X159800395Y-91440000D01*
X159786252Y-91425858D01*
X159965858Y-91246253D01*
X159980000Y-91260395D01*
X159994143Y-91246253D01*
X160173748Y-91425858D01*
X160159605Y-91440000D01*
X160987745Y-92268139D01*
X161233864Y-92194005D01*
X161426965Y-91656777D01*
X161399778Y-91086546D01*
X161334934Y-90930000D01*
X163552560Y-90930000D01*
X163552560Y-92340000D01*
X163596838Y-92575317D01*
X163735910Y-92791441D01*
X163948110Y-92936431D01*
X164200000Y-92987440D01*
X166000000Y-92987440D01*
X166235317Y-92943162D01*
X166451441Y-92804090D01*
X166596431Y-92591890D01*
X166647440Y-92340000D01*
X166647440Y-90930000D01*
X167676254Y-90930000D01*
X167575232Y-91173287D01*
X167574769Y-91704383D01*
X167777582Y-92195229D01*
X168152796Y-92571098D01*
X168643287Y-92774768D01*
X169174383Y-92775231D01*
X169470000Y-92653085D01*
X169470000Y-97833286D01*
X169420882Y-97800467D01*
X168910000Y-97698846D01*
X168399118Y-97800467D01*
X167966012Y-98089858D01*
X167825600Y-98300000D01*
X166422934Y-98300000D01*
X166185409Y-97944519D01*
X165687419Y-97611773D01*
X165100000Y-97494928D01*
X164691071Y-97576269D01*
X164637401Y-97522599D01*
X164390839Y-97357852D01*
X164100000Y-97300000D01*
X160975105Y-97300000D01*
X160884090Y-97158559D01*
X160671890Y-97013569D01*
X160420000Y-96962560D01*
X159620000Y-96962560D01*
X159384683Y-97006838D01*
X159168559Y-97145910D01*
X159023569Y-97358110D01*
X158972560Y-97610000D01*
X158972560Y-98510000D01*
X159016838Y-98745317D01*
X159155910Y-98961441D01*
X159157548Y-98962560D01*
X159047362Y-98962560D01*
X158518263Y-98433461D01*
X158557440Y-98240000D01*
X158557440Y-97340000D01*
X158513162Y-97104683D01*
X158374090Y-96888559D01*
X158161890Y-96743569D01*
X157910000Y-96692560D01*
X156710000Y-96692560D01*
X156474683Y-96736838D01*
X156258559Y-96875910D01*
X156210866Y-96945711D01*
X156174090Y-96888559D01*
X155961890Y-96743569D01*
X155710000Y-96692560D01*
X154588979Y-96692560D01*
X154330725Y-96520000D01*
X154712811Y-96264698D01*
X155023880Y-95799151D01*
X155133113Y-95250000D01*
X155023880Y-94700849D01*
X154712811Y-94235302D01*
X154330725Y-93980000D01*
X154712811Y-93724698D01*
X155023880Y-93259151D01*
X155133113Y-92710000D01*
X155023880Y-92160849D01*
X154712811Y-91695302D01*
X154330725Y-91440000D01*
X154712811Y-91184698D01*
X154882995Y-90930000D01*
X156032560Y-90930000D01*
X156032560Y-92240000D01*
M02*
