M48
;DRILL file {KiCad 4.0.7} date 11/14/17 16:46:56
;FORMAT={-:-/ absolute / inch / decimal}
FMAT,2
INCH,TZ
T1C0.024
T2C0.028
T3C0.031
T4C0.035
T5C0.047
%
G90
G05
M72
T1
X5.45Y-3.6
X5.5Y-3.55
X5.5Y-3.9
X5.55Y-3.6
X5.55Y-3.85
X5.6Y-3.9
T2
X6.65Y-3.6
X6.65Y-3.9
T3
X5.75Y-3.55
X5.75Y-3.65
X5.75Y-3.75
X5.75Y-3.85
X6.05Y-3.55
X6.05Y-3.65
X6.05Y-3.75
X6.05Y-3.85
X6.2Y-3.6
X6.2984Y-3.6
T4
X6.5Y-3.6
X6.5Y-3.9
T5
X5.25Y-3.5
X5.25Y-3.6
X5.25Y-3.7
X5.25Y-3.8
X5.25Y-3.9
X5.25Y-4.
T0
M30
